<?xml version="1.0" encoding="utf-8"?>
<!-- Generator: Adobe Illustrator 16.0.0, SVG Export Plug-In . SVG Version: 6.00 Build 0)  -->
<!DOCTYPE svg PUBLIC "-//W3C//DTD SVG 1.1//EN" "http://www.w3.org/Graphics/SVG/1.1/DTD/svg11.dtd">
<svg version="1.1" id="Layer_1" xmlns="http://www.w3.org/2000/svg" xmlns:xlink="http://www.w3.org/1999/xlink" x="0px" y="0px"
	 width="100px" height="100px" viewBox="0 0 100 100" enable-background="new 0 0 100 100" xml:space="preserve">
<g>
	<path fill="#FFA600" d="M72.273,32.226c-2.502-2.502-5.373-4.547-8.53-6.078c-1.986-0.965-4.382-0.135-5.345,1.854
		c-0.965,1.987-0.135,4.38,1.854,5.344c2.354,1.141,4.494,2.668,6.364,4.537c9.161,9.163,9.161,24.071,0,33.234
		c-4.438,4.438-10.341,6.882-16.617,6.882c-6.277,0-12.179-2.442-16.617-6.882c-9.162-9.163-9.162-24.071,0-33.234
		c1.87-1.87,4.011-3.396,6.362-4.535c1.987-0.964,2.818-3.356,1.854-5.344c-0.965-1.988-3.354-2.817-5.345-1.855
		c-3.157,1.53-6.025,3.575-8.528,6.077c-12.282,12.282-12.282,32.266,0,44.547c6.141,6.142,14.207,9.211,22.273,9.211
		c8.066,0,16.133-3.069,22.273-9.211C84.557,64.492,84.557,44.508,72.273,32.226z"/>
	<path fill="#FFA600" d="M50,48c2.209,0,4-1.791,4-4V14c0-2.209-1.791-4-4-4s-4,1.791-4,4v30C46,46.209,47.791,48,50,48z"/>
</g>
</svg>
